<svg id="visual" viewBox="0 0 900 600" width="900" height="600" xmlns="http://www.w3.org/2000/svg" xmlns:xlink="http://www.w3.org/1999/xlink" version="1.1"><path d="M0 254L21.5 236.8C43 219.7 86 185.3 128.8 173.7C171.7 162 214.3 173 257.2 187C300 201 343 218 385.8 234.7C428.7 251.3 471.3 267.7 514.2 268.3C557 269 600 254 642.8 241C685.7 228 728.3 217 771.2 197.5C814 178 857 150 878.5 136L900 122L900 0L878.5 0C857 0 814 0 771.2 0C728.3 0 685.7 0 642.8 0C600 0 557 0 514.2 0C471.3 0 428.7 0 385.8 0C343 0 300 0 257.2 0C214.3 0 171.7 0 128.8 0C86 0 43 0 21.5 0L0 0Z" fill="#0066FF" stroke-linecap="round" stroke-linejoin="miter"></path></svg>